<svg width="1535" height="709" xmlns="http://www.w3.org/2000/svg" xmlns:xlink="http://www.w3.org/1999/xlink" xml:space="preserve" overflow="hidden"><defs><clipPath id="clip0"><rect x="1432" y="883" width="1535" height="709"/></clipPath></defs><g clip-path="url(#clip0)" transform="translate(-1432 -883)"><rect x="1736" y="1052" width="67" height="540" fill="#FFFFFF"/><rect x="2124" y="1052" width="67" height="371" fill="#FFFFFF"/><rect x="2512" y="883" width="67" height="540" fill="#FFFFFF"/><path d="M1432 1237.5C1432 1135.05 1515.05 1052 1617.5 1052 1719.95 1052 1803 1135.05 1803 1237.5 1803 1339.95 1719.95 1423 1617.5 1423 1515.05 1423 1432 1339.95 1432 1237.5ZM1499.44 1237.5C1499.44 1302.7 1552.3 1355.56 1617.5 1355.56 1682.7 1355.56 1735.56 1302.7 1735.56 1237.5 1735.56 1172.3 1682.7 1119.44 1617.5 1119.44 1552.3 1119.44 1499.44 1172.3 1499.44 1237.5Z" fill="#FFFFFF" fill-rule="evenodd"/><path d="M1820 1237.5C1820 1135.05 1903.05 1052 2005.5 1052 2107.95 1052 2191 1135.05 2191 1237.5 2191 1339.95 2107.95 1423 2005.5 1423 1903.05 1423 1820 1339.95 1820 1237.5ZM1887.44 1237.5C1887.44 1302.7 1940.3 1355.56 2005.5 1355.56 2070.7 1355.56 2123.56 1302.7 2123.56 1237.5 2123.56 1172.3 2070.7 1119.44 2005.5 1119.44 1940.3 1119.44 1887.44 1172.3 1887.44 1237.5Z" fill="#FFFFFF" fill-rule="evenodd"/><path d="M2209 1237.5C2209 1135.05 2291.83 1052 2394 1052 2496.17 1052 2579 1135.05 2579 1237.5 2579 1339.95 2496.17 1423 2394 1423 2291.83 1423 2209 1339.95 2209 1237.5ZM2276.25 1237.5C2276.25 1302.81 2328.97 1355.75 2394 1355.75 2459.03 1355.75 2511.75 1302.81 2511.75 1237.5 2511.75 1172.19 2459.03 1119.25 2394 1119.25 2328.97 1119.25 2276.25 1172.19 2276.25 1237.5Z" fill="#FFFFFF" fill-rule="evenodd"/><path d="M2597 1237.5C2597 1135.05 2679.83 1052 2782 1052 2884.17 1052 2967 1135.05 2967 1237.5 2967 1339.95 2884.17 1423 2782 1423 2679.83 1423 2597 1339.95 2597 1237.5ZM2664.25 1237.5C2664.25 1302.81 2716.97 1355.75 2782 1355.75 2847.03 1355.75 2899.75 1302.81 2899.75 1237.5 2899.75 1172.19 2847.03 1119.25 2782 1119.25 2716.97 1119.25 2664.25 1172.19 2664.25 1237.5Z" fill="#FFFFFF" fill-rule="evenodd"/></g></svg>