<svg width="2136" height="985" xmlns="http://www.w3.org/2000/svg" xmlns:xlink="http://www.w3.org/1999/xlink" xml:space="preserve" overflow="hidden"><defs><linearGradient x1="1731.43" y1="793.231" x2="2480.57" y2="2417.77" gradientUnits="userSpaceOnUse" spreadMethod="reflect" id="fill0"><stop offset="0" stop-color="#6976DE"/><stop offset="0.0181818" stop-color="#6975DD"/><stop offset="0.0363636" stop-color="#6975DD"/><stop offset="0.0545455" stop-color="#6A75DD"/><stop offset="0.0727273" stop-color="#6A75DD"/><stop offset="0.0909091" stop-color="#6A75DD"/><stop offset="0.109091" stop-color="#6B75DD"/><stop offset="0.127273" stop-color="#6B75DC"/><stop offset="0.145455" stop-color="#6C74DC"/><stop offset="0.163636" stop-color="#6C74DC"/><stop offset="0.181818" stop-color="#6C74DB"/><stop offset="0.2" stop-color="#6D74DB"/><stop offset="0.218182" stop-color="#6D73DA"/><stop offset="0.236364" stop-color="#6D73DA"/><stop offset="0.254545" stop-color="#6E72D9"/><stop offset="0.272727" stop-color="#6E72D9"/><stop offset="0.290909" stop-color="#6E72D8"/><stop offset="0.309091" stop-color="#6F71D7"/><stop offset="0.327273" stop-color="#6F71D7"/><stop offset="0.345455" stop-color="#6F70D6"/><stop offset="0.363636" stop-color="#6F6FD5"/><stop offset="0.381818" stop-color="#706FD4"/><stop offset="0.4" stop-color="#706ED3"/><stop offset="0.418182" stop-color="#706ED3"/><stop offset="0.436364" stop-color="#706DD2"/><stop offset="0.454545" stop-color="#716CD1"/><stop offset="0.472727" stop-color="#716CD0"/><stop offset="0.490909" stop-color="#716BCF"/><stop offset="0.509091" stop-color="#716ACE"/><stop offset="0.527273" stop-color="#7269CD"/><stop offset="0.545455" stop-color="#7269CC"/><stop offset="0.563636" stop-color="#7268CA"/><stop offset="0.581818" stop-color="#7267C9"/><stop offset="0.6" stop-color="#7266C8"/><stop offset="0.618182" stop-color="#7365C7"/><stop offset="0.636364" stop-color="#7364C6"/><stop offset="0.654545" stop-color="#7363C4"/><stop offset="0.672727" stop-color="#7362C3"/><stop offset="0.690909" stop-color="#7362C2"/><stop offset="0.709091" stop-color="#7361C0"/><stop offset="0.727273" stop-color="#735FBF"/><stop offset="0.745455" stop-color="#745EBD"/><stop offset="0.763636" stop-color="#745DBC"/><stop offset="0.781818" stop-color="#745CBA"/><stop offset="0.8" stop-color="#745BB9"/><stop offset="0.818182" stop-color="#745AB7"/><stop offset="0.836364" stop-color="#7459B5"/><stop offset="0.854545" stop-color="#7458B4"/><stop offset="0.872727" stop-color="#7457B2"/><stop offset="0.890909" stop-color="#7455B0"/><stop offset="0.909091" stop-color="#7454AF"/><stop offset="0.927273" stop-color="#7453AD"/><stop offset="0.945455" stop-color="#7451AB"/><stop offset="0.963636" stop-color="#7450A9"/><stop offset="0.981818" stop-color="#744FA7"/><stop offset="1" stop-color="#754EA6"/></linearGradient></defs><g transform="translate(-1038 -1113)"><path d="M2916.36 1442.07C2825.73 1442.07 2752.26 1515.31 2752.26 1605.66 2752.26 1696.01 2825.73 1769.25 2916.36 1769.25 3006.98 1769.25 3080.45 1696.01 3080.45 1605.66 3080.45 1515.31 3006.98 1442.07 2916.36 1442.07ZM2376.12 1442.07C2285.49 1442.07 2212.03 1515.31 2212.03 1605.66 2212.03 1696.01 2285.49 1769.25 2376.12 1769.25 2466.74 1769.25 2540.21 1696.01 2540.21 1605.66 2540.21 1515.31 2466.74 1442.07 2376.12 1442.07ZM1835.88 1442.07C1745.25 1442.07 1671.79 1515.31 1671.79 1605.66 1671.79 1696.01 1745.25 1769.25 1835.88 1769.25 1926.51 1769.25 1999.97 1696.01 1999.97 1605.66 1999.97 1515.31 1926.51 1442.07 1835.88 1442.07ZM1295.64 1442.07C1205.02 1442.07 1131.55 1515.31 1131.55 1605.66 1131.55 1696.01 1205.02 1769.25 1295.64 1769.25 1386.27 1769.25 1459.74 1696.01 1459.74 1605.66 1459.74 1515.31 1386.27 1442.07 1295.64 1442.07ZM2914.35 1348.83 2918.36 1348.83 2968.28 1353.85C3085.68 1377.82 3174 1481.45 3174 1605.66 3174 1747.61 3058.65 1862.69 2916.36 1862.69 2774.06 1862.69 2658.71 1747.61 2658.71 1605.66 2658.71 1481.45 2747.03 1377.82 2864.43 1353.85ZM1833.87 1348.83 1838.56 1348.83 1875.12 1351.59C1913.5 1357.44 1949.09 1371.74 1979.93 1392.53L2000.27 1409.27 2000.27 1348.83 2093.52 1348.83 2093.52 1605.66 2093.52 1605.66 2093.52 1605.66 2093.52 1862.69 2000.27 1862.69 2000.27 1802.05 1979.93 1818.79C1938.81 1846.51 1889.24 1862.69 1835.88 1862.69 1693.59 1862.69 1578.24 1747.61 1578.24 1605.66 1578.24 1481.45 1666.55 1377.82 1783.96 1353.85ZM1295.64 1348.63C1349 1348.63 1398.57 1364.81 1439.7 1392.53L1460.03 1409.27 1460.03 1348.83 1553.29 1348.83 1553.29 1605.66 1553.29 1605.66 1553.29 1605.66 1553.29 2098 1460.03 2098 1460.03 1802.05 1439.7 1818.79C1398.57 1846.51 1349 1862.69 1295.64 1862.69 1153.35 1862.69 1038 1747.61 1038 1605.66 1038 1463.71 1153.35 1348.63 1295.64 1348.63ZM2583.83 1113 2600.34 1113 2600.34 1113.32 2633.76 1113.32 2633.76 1862.69 2540.51 1862.69 2540.51 1802.05 2520.17 1818.79C2479.05 1846.51 2429.48 1862.69 2376.12 1862.69 2233.83 1862.69 2118.47 1747.61 2118.47 1605.66 2118.47 1463.71 2233.83 1348.63 2376.12 1348.63 2429.48 1348.63 2479.05 1364.81 2520.17 1392.53L2540.51 1409.27 2540.51 1113.32 2583.83 1113.32Z" fill="url(#fill0)" fill-rule="evenodd"/></g></svg>