<svg width="2530" height="1203" xmlns="http://www.w3.org/2000/svg" xmlns:xlink="http://www.w3.org/1999/xlink" xml:space="preserve" overflow="hidden"><defs><linearGradient x1="1891.3" y1="563.244" x2="2507.7" y2="1898.76" gradientUnits="userSpaceOnUse" spreadMethod="reflect" id="fill0"><stop offset="0" stop-color="#6976DE"/><stop offset="0.0181818" stop-color="#6975DD"/><stop offset="0.0363636" stop-color="#6975DD"/><stop offset="0.0545455" stop-color="#6A75DD"/><stop offset="0.0727273" stop-color="#6A75DD"/><stop offset="0.0909091" stop-color="#6A75DD"/><stop offset="0.109091" stop-color="#6B75DD"/><stop offset="0.127273" stop-color="#6B75DC"/><stop offset="0.145455" stop-color="#6C74DC"/><stop offset="0.163636" stop-color="#6C74DC"/><stop offset="0.181818" stop-color="#6C74DB"/><stop offset="0.2" stop-color="#6D74DB"/><stop offset="0.218182" stop-color="#6D73DA"/><stop offset="0.236364" stop-color="#6D73DA"/><stop offset="0.254545" stop-color="#6E72D9"/><stop offset="0.272727" stop-color="#6E72D9"/><stop offset="0.290909" stop-color="#6E72D8"/><stop offset="0.309091" stop-color="#6F71D7"/><stop offset="0.327273" stop-color="#6F71D7"/><stop offset="0.345455" stop-color="#6F70D6"/><stop offset="0.363636" stop-color="#6F6FD5"/><stop offset="0.381818" stop-color="#706FD4"/><stop offset="0.4" stop-color="#706ED3"/><stop offset="0.418182" stop-color="#706ED3"/><stop offset="0.436364" stop-color="#706DD2"/><stop offset="0.454545" stop-color="#716CD1"/><stop offset="0.472727" stop-color="#716CD0"/><stop offset="0.490909" stop-color="#716BCF"/><stop offset="0.509091" stop-color="#716ACE"/><stop offset="0.527273" stop-color="#7269CD"/><stop offset="0.545455" stop-color="#7269CC"/><stop offset="0.563636" stop-color="#7268CA"/><stop offset="0.581818" stop-color="#7267C9"/><stop offset="0.6" stop-color="#7266C8"/><stop offset="0.618182" stop-color="#7365C7"/><stop offset="0.636364" stop-color="#7364C6"/><stop offset="0.654545" stop-color="#7363C4"/><stop offset="0.672727" stop-color="#7362C3"/><stop offset="0.690909" stop-color="#7362C2"/><stop offset="0.709091" stop-color="#7361C0"/><stop offset="0.727273" stop-color="#735FBF"/><stop offset="0.745455" stop-color="#745EBD"/><stop offset="0.763636" stop-color="#745DBC"/><stop offset="0.781818" stop-color="#745CBA"/><stop offset="0.8" stop-color="#745BB9"/><stop offset="0.818182" stop-color="#745AB7"/><stop offset="0.836364" stop-color="#7459B5"/><stop offset="0.854545" stop-color="#7458B4"/><stop offset="0.872727" stop-color="#7457B2"/><stop offset="0.890909" stop-color="#7455B0"/><stop offset="0.909091" stop-color="#7454AF"/><stop offset="0.927273" stop-color="#7453AD"/><stop offset="0.945455" stop-color="#7451AB"/><stop offset="0.963636" stop-color="#7450A9"/><stop offset="0.981818" stop-color="#744FA7"/><stop offset="1" stop-color="#754EA6"/></linearGradient><linearGradient x1="2163.94" y1="1569.32" x2="2235.2" y2="2154.64" gradientUnits="userSpaceOnUse" spreadMethod="reflect" id="fill1"><stop offset="0" stop-color="#6976DE"/><stop offset="0.0181818" stop-color="#6975DD"/><stop offset="0.0363636" stop-color="#6975DD"/><stop offset="0.0545455" stop-color="#6A75DD"/><stop offset="0.0727273" stop-color="#6A75DD"/><stop offset="0.0909091" stop-color="#6A75DD"/><stop offset="0.109091" stop-color="#6B75DD"/><stop offset="0.127273" stop-color="#6B75DC"/><stop offset="0.145455" stop-color="#6C74DC"/><stop offset="0.163636" stop-color="#6C74DC"/><stop offset="0.181818" stop-color="#6C74DB"/><stop offset="0.2" stop-color="#6D74DB"/><stop offset="0.218182" stop-color="#6D73DA"/><stop offset="0.236364" stop-color="#6D73DA"/><stop offset="0.254545" stop-color="#6E72D9"/><stop offset="0.272727" stop-color="#6E72D9"/><stop offset="0.290909" stop-color="#6E72D8"/><stop offset="0.309091" stop-color="#6F71D7"/><stop offset="0.327273" stop-color="#6F71D7"/><stop offset="0.345455" stop-color="#6F70D6"/><stop offset="0.363636" stop-color="#6F6FD5"/><stop offset="0.381818" stop-color="#706FD4"/><stop offset="0.4" stop-color="#706ED3"/><stop offset="0.418182" stop-color="#706ED3"/><stop offset="0.436364" stop-color="#706DD2"/><stop offset="0.454545" stop-color="#716CD1"/><stop offset="0.472727" stop-color="#716CD0"/><stop offset="0.490909" stop-color="#716BCF"/><stop offset="0.509091" stop-color="#716ACE"/><stop offset="0.527273" stop-color="#7269CD"/><stop offset="0.545455" stop-color="#7269CC"/><stop offset="0.563636" stop-color="#7268CA"/><stop offset="0.581818" stop-color="#7267C9"/><stop offset="0.6" stop-color="#7266C8"/><stop offset="0.618182" stop-color="#7365C7"/><stop offset="0.636364" stop-color="#7364C6"/><stop offset="0.654545" stop-color="#7363C4"/><stop offset="0.672727" stop-color="#7362C3"/><stop offset="0.690909" stop-color="#7362C2"/><stop offset="0.709091" stop-color="#7361C0"/><stop offset="0.727273" stop-color="#735FBF"/><stop offset="0.745455" stop-color="#745EBD"/><stop offset="0.763636" stop-color="#745DBC"/><stop offset="0.781818" stop-color="#745CBA"/><stop offset="0.8" stop-color="#745BB9"/><stop offset="0.818182" stop-color="#745AB7"/><stop offset="0.836364" stop-color="#7459B5"/><stop offset="0.854545" stop-color="#7458B4"/><stop offset="0.872727" stop-color="#7457B2"/><stop offset="0.890909" stop-color="#7455B0"/><stop offset="0.909091" stop-color="#7454AF"/><stop offset="0.927273" stop-color="#7453AD"/><stop offset="0.945455" stop-color="#7451AB"/><stop offset="0.963636" stop-color="#7450A9"/><stop offset="0.981818" stop-color="#744FA7"/><stop offset="1" stop-color="#754EA6"/></linearGradient></defs><g transform="translate(-935 -826)"><path d="M2865.31 1096.61C2790.85 1096.61 2730.49 1156.84 2730.49 1231.13 2730.49 1305.43 2790.85 1365.66 2865.31 1365.66 2939.77 1365.66 3000.14 1305.43 3000.14 1231.13 3000.14 1156.84 2939.77 1096.61 2865.31 1096.61ZM2421.44 1096.61C2346.98 1096.61 2286.61 1156.84 2286.61 1231.13 2286.61 1305.43 2346.98 1365.66 2421.44 1365.66 2495.9 1365.66 2556.26 1305.43 2556.26 1231.13 2556.26 1156.84 2495.9 1096.61 2421.44 1096.61ZM1977.56 1096.61C1903.1 1096.61 1842.74 1156.84 1842.74 1231.13 1842.74 1305.43 1903.1 1365.66 1977.56 1365.66 2052.02 1365.66 2112.39 1305.43 2112.39 1231.13 2112.39 1156.84 2052.02 1096.61 1977.56 1096.61ZM1533.69 1096.61C1459.23 1096.61 1398.86 1156.84 1398.86 1231.13 1398.86 1305.43 1459.23 1365.66 1533.69 1365.66 1608.15 1365.66 1668.51 1305.43 1668.51 1231.13 1668.51 1156.84 1608.15 1096.61 1533.69 1096.61ZM2863.66 1019.93 2866.96 1019.93 2907.97 1024.06C3004.44 1043.77 3077 1128.99 3077 1231.13 3077 1347.86 2982.22 1442.5 2865.31 1442.5 2748.4 1442.5 2653.62 1347.86 2653.62 1231.13 2653.62 1128.99 2726.19 1043.77 2822.65 1024.06ZM1975.91 1019.93 1979.76 1019.93 2009.8 1022.2C2041.34 1027.01 2070.58 1038.77 2095.92 1055.86L2112.63 1069.63 2112.63 1019.93 2189.25 1019.93 2189.25 1231.13 2189.25 1231.13 2189.25 1231.13 2189.25 1442.5 2112.63 1442.5 2112.63 1392.63 2095.92 1406.4C2062.13 1429.19 2021.4 1442.5 1977.56 1442.5 1860.65 1442.5 1765.87 1347.86 1765.87 1231.13 1765.87 1128.99 1838.44 1043.77 1934.9 1024.06ZM1533.69 1019.77C1577.53 1019.77 1618.26 1033.07 1652.04 1055.86L1668.75 1069.63 1668.75 1019.93 1745.38 1019.93 1745.38 1231.13 1745.38 1231.13 1745.38 1231.13 1745.38 1636 1668.75 1636 1668.75 1392.63 1652.04 1406.4C1618.26 1429.19 1577.53 1442.5 1533.69 1442.5 1416.78 1442.5 1322 1347.86 1322 1231.13 1322 1114.4 1416.78 1019.77 1533.69 1019.77ZM2592.1 826 2605.66 826 2605.66 826.262 2633.13 826.262 2633.13 1442.5 2556.5 1442.5 2556.5 1392.63 2539.79 1406.4C2506.01 1429.19 2465.28 1442.5 2421.44 1442.5 2304.53 1442.5 2209.75 1347.86 2209.75 1231.13 2209.75 1114.4 2304.53 1019.77 2421.44 1019.77 2465.28 1019.77 2506.01 1033.07 2539.79 1055.86L2556.5 1069.63 2556.5 826.262 2592.1 826.262Z" fill="url(#fill0)" fill-rule="evenodd"/><path d="M1853.02 1836.93C1838.93 1836.93 1826.82 1842.13 1816.69 1852.55 1806.56 1862.96 1801.5 1875.56 1801.5 1890.33 1801.5 1899.86 1803.81 1908.74 1808.42 1916.97 1813.04 1925.2 1819.28 1931.56 1827.14 1936.04 1835 1940.52 1843.63 1942.76 1853.02 1942.76 1862.42 1942.76 1871.05 1940.52 1878.91 1936.04 1886.77 1931.56 1893 1925.2 1897.62 1916.97 1902.24 1908.74 1904.55 1899.86 1904.55 1890.33 1904.55 1875.56 1899.46 1862.96 1889.3 1852.55 1879.13 1842.13 1867.04 1836.93 1853.02 1836.93ZM3335.29 1836.69C3325.69 1836.69 3316.77 1839.01 3308.53 1843.65 3300.3 1848.29 3293.84 1854.71 3289.16 1862.9 3284.48 1871.1 3282.13 1879.96 3282.13 1889.48 3282.13 1903.93 3286.98 1915.88 3296.67 1925.33 3306.35 1934.77 3318.91 1939.49 3334.33 1939.49 3349.91 1939.49 3362.44 1934.81 3371.93 1925.45 3381.41 1916.08 3386.15 1903.77 3386.15 1888.51 3386.15 1878.58 3383.97 1869.72 3379.61 1861.93 3375.26 1854.14 3369.08 1847.99 3361.09 1843.47 3353.1 1838.95 3344.5 1836.69 3335.29 1836.69ZM2965.48 1836.69C2956.04 1836.69 2947.33 1839 2939.35 1843.64 2931.37 1848.28 2925.02 1854.79 2920.3 1863.18 2915.58 1871.56 2913.22 1880.43 2913.22 1889.78 2913.22 1899.06 2915.6 1907.93 2920.36 1916.4 2925.12 1924.86 2931.51 1931.45 2939.53 1936.17 2947.55 1940.89 2956.16 1943.25 2965.35 1943.25 2974.63 1943.25 2983.42 1940.91 2991.72 1936.23 3000.03 1931.55 3006.42 1925.22 3010.89 1917.24 3015.37 1909.26 3017.61 1900.27 3017.61 1890.27 3017.61 1875.03 3012.59 1862.29 3002.55 1852.05 2992.51 1841.81 2980.15 1836.69 2965.48 1836.69ZM2489.77 1836.69C2475.12 1836.69 2462.77 1841.81 2452.75 1852.05 2442.72 1862.29 2437.7 1875.03 2437.7 1890.27 2437.7 1900.27 2439.94 1909.26 2444.41 1917.24 2448.88 1925.22 2455.28 1931.55 2463.62 1936.23 2471.96 1940.91 2480.75 1943.25 2490.02 1943.25 2499.12 1943.25 2507.68 1940.89 2515.69 1936.17 2523.7 1931.45 2530.09 1924.86 2534.84 1916.4 2539.59 1907.93 2541.97 1899.06 2541.97 1889.78 2541.97 1880.43 2539.61 1871.56 2534.9 1863.18 2530.19 1854.79 2523.84 1848.28 2515.87 1843.64 2507.9 1839 2499.2 1836.69 2489.77 1836.69ZM1222.23 1836.69C1212.8 1836.69 1204.09 1839 1196.11 1843.64 1188.12 1848.28 1181.77 1854.79 1177.06 1863.18 1172.34 1871.56 1169.98 1880.43 1169.98 1889.78 1169.98 1899.06 1172.36 1907.93 1177.12 1916.4 1181.88 1924.86 1188.27 1931.45 1196.29 1936.17 1204.31 1940.89 1212.92 1943.25 1222.11 1943.25 1231.39 1943.25 1240.18 1940.91 1248.48 1936.23 1256.79 1931.55 1263.18 1925.22 1267.65 1917.24 1272.13 1909.26 1274.36 1900.27 1274.36 1890.27 1274.36 1875.03 1269.35 1862.29 1259.31 1852.05 1249.27 1841.81 1236.91 1836.69 1222.23 1836.69ZM2652.18 1836.56C2639.24 1836.56 2628.13 1840.72 2618.83 1849.04 2612.04 1855.09 2606.91 1864.17 2603.44 1876.28L2701.64 1876.28C2699.38 1867.24 2696.09 1860.02 2691.76 1854.61 2687.44 1849.2 2681.72 1844.84 2674.6 1841.53 2667.49 1838.22 2660.01 1836.56 2652.18 1836.56ZM2151.18 1836.56C2138.24 1836.56 2127.13 1840.72 2117.83 1849.04 2111.04 1855.09 2105.91 1864.17 2102.44 1876.28L2200.64 1876.28C2198.38 1867.24 2195.09 1860.02 2190.76 1854.61 2186.44 1849.2 2180.72 1844.84 2173.6 1841.53 2166.49 1838.22 2159.01 1836.56 2151.18 1836.56ZM3069.18 1823.73 3086.13 1823.73 3086.13 1955.48 3069.18 1955.48ZM1940.25 1823.73 1958.29 1823.73 2002.51 1919.77 2046.2 1823.73 2064.37 1823.73 2004.06 1955.48 2000.92 1955.48ZM3333.06 1820.34C3342.92 1820.34 3352.11 1822.38 3360.64 1826.45 3369.16 1830.53 3377.39 1837.25 3385.31 1846.61L3385.31 1823.73 3402.26 1823.73 3402.26 1928.72C3402.26 1947.2 3400.64 1960.73 3397.42 1969.28 3392.98 1981.39 3385.27 1990.72 3374.29 1997.26 3363.31 2003.79 3350.11 2007.06 3334.69 2007.06 3323.39 2007.06 3313.24 2005.47 3304.23 2002.27 3295.23 1999.07 3287.91 1994.78 3282.26 1989.39 3276.6 1984.01 3271.4 1976.13 3266.63 1965.77L3285.04 1965.77C3290.05 1974.49 3296.52 1980.95 3304.44 1985.15 3312.36 1989.34 3322.18 1991.44 3333.9 1991.44 3345.46 1991.44 3355.22 1989.29 3363.18 1984.99 3371.14 1980.68 3376.82 1975.27 3380.21 1968.75 3383.61 1962.24 3385.31 1951.72 3385.31 1937.19L3385.31 1930.41C3378.92 1938.48 3371.12 1944.68 3361.91 1949 3352.7 1953.32 3342.92 1955.48 3332.58 1955.48 3320.46 1955.48 3309.06 1952.47 3298.39 1946.46 3287.73 1940.44 3279.48 1932.35 3273.67 1922.18 3267.85 1912.01 3264.94 1900.82 3264.94 1888.63 3264.94 1876.44 3267.97 1865.08 3274.03 1854.55 3280.09 1844.01 3288.48 1835.68 3299.18 1829.54 3309.89 1823.41 3321.18 1820.34 3333.06 1820.34ZM3187.08 1820.34C3196.93 1820.34 3205.67 1822.84 3213.3 1827.85 3220.93 1832.85 3226.56 1839.59 3230.19 1848.07 3233.82 1856.54 3235.64 1869.74 3235.64 1887.67L3235.64 1955.48 3218.69 1955.48 3218.69 1892.63C3218.69 1877.45 3218.06 1867.32 3216.8 1862.24 3214.83 1853.52 3211.07 1846.96 3205.5 1842.56 3199.93 1838.16 3192.66 1835.96 3183.7 1835.96 3173.44 1835.96 3164.26 1839.35 3156.14 1846.13 3148.03 1852.91 3142.68 1861.31 3140.1 1871.32 3138.48 1877.86 3137.67 1889.81 3137.67 1907.16L3137.67 1955.48 3120.72 1955.48 3120.72 1823.73 3137.67 1823.73 3137.67 1847.34C3144.45 1838.3 3151.96 1831.54 3160.2 1827.06 3168.43 1822.58 3177.39 1820.34 3187.08 1820.34ZM2818.08 1820.34C2827.93 1820.34 2836.67 1822.84 2844.3 1827.85 2851.93 1832.85 2857.56 1839.59 2861.19 1848.07 2864.82 1856.54 2866.64 1869.74 2866.64 1887.67L2866.64 1955.48 2849.68 1955.48 2849.68 1892.63C2849.68 1877.45 2849.06 1867.32 2847.8 1862.24 2845.83 1853.52 2842.07 1846.96 2836.5 1842.56 2830.93 1838.16 2823.66 1835.96 2814.7 1835.96 2804.44 1835.96 2795.26 1839.35 2787.14 1846.13 2779.03 1852.91 2773.68 1861.31 2771.1 1871.32 2769.48 1877.86 2768.67 1889.81 2768.67 1907.16L2768.67 1955.48 2751.72 1955.48 2751.72 1823.73 2768.67 1823.73 2768.67 1847.34C2775.45 1838.3 2782.96 1831.54 2791.2 1827.06 2799.43 1822.58 2808.39 1820.34 2818.08 1820.34ZM2651.93 1820.34C2674.4 1820.34 2692.33 1828.85 2705.75 1845.89 2715.28 1857.92 2720.13 1872.93 2720.29 1890.94L2601.74 1890.94C2602.06 1906.24 2606.95 1918.78 2616.41 1928.57 2625.87 1938.35 2637.55 1943.25 2651.45 1943.25 2658.16 1943.25 2664.68 1942.08 2671.03 1939.75 2677.37 1937.42 2682.77 1934.32 2687.21 1930.46 2691.66 1926.6 2696.47 1920.37 2701.64 1911.76L2715.93 1919.27C2711.24 1928.47 2705.83 1935.9 2699.69 1941.55 2693.55 1947.2 2686.64 1951.5 2678.96 1954.45 2671.29 1957.4 2662.6 1958.87 2652.9 1958.87 2631.41 1958.87 2614.6 1951.83 2602.48 1937.74 2590.36 1923.65 2584.3 1907.73 2584.3 1889.97 2584.3 1873.26 2589.43 1858.36 2599.69 1845.28 2612.7 1828.65 2630.12 1820.34 2651.93 1820.34ZM2491.18 1820.34C2509.89 1820.34 2525.89 1827.08 2539.2 1840.56 2552.51 1854.04 2559.16 1870.27 2559.16 1889.24 2559.16 1908.61 2552.57 1925.06 2539.38 1938.59 2526.2 1952.11 2510.29 1958.87 2491.66 1958.87 2481.17 1958.87 2471.54 1956.69 2462.75 1952.33 2453.96 1947.97 2446.01 1941.47 2438.92 1932.83L2438.92 2003.67 2421.96 2003.67 2421.96 1823.73 2438.92 1823.73 2438.92 1847.95C2445.61 1838.74 2453.31 1831.84 2462.02 1827.24 2470.73 1822.64 2480.45 1820.34 2491.18 1820.34ZM2354.33 1820.34C2366.46 1820.34 2378.67 1826.27 2390.96 1838.14L2380.06 1849.4C2370.99 1840.6 2362.13 1836.2 2353.47 1836.2 2347.97 1836.2 2343.25 1838.02 2339.33 1841.65 2335.4 1845.28 2333.44 1849.52 2333.44 1854.36 2333.44 1858.64 2335.06 1862.72 2338.29 1866.6 2341.53 1870.55 2348.32 1875.19 2358.68 1880.52 2371.3 1887.06 2379.88 1893.36 2384.41 1899.41 2388.86 1905.55 2391.08 1912.45 2391.08 1920.12 2391.08 1930.94 2387.28 1940.1 2379.68 1947.61 2372.08 1955.11 2362.58 1958.87 2351.18 1958.87 2343.58 1958.87 2336.32 1957.21 2329.41 1953.9 2322.5 1950.59 2316.78 1946.03 2312.25 1940.22L2322.9 1928.11C2331.56 1937.88 2340.75 1942.76 2350.46 1942.76 2357.25 1942.76 2363.04 1940.58 2367.81 1936.22 2372.59 1931.86 2374.97 1926.74 2374.97 1920.85 2374.97 1916 2373.4 1911.68 2370.24 1907.89 2367.09 1904.17 2359.97 1899.49 2348.88 1893.84 2336.99 1887.71 2328.9 1881.65 2324.61 1875.68 2320.32 1869.7 2318.18 1862.88 2318.18 1855.21 2318.18 1845.2 2321.6 1836.89 2328.43 1830.27 2335.26 1823.65 2343.9 1820.34 2354.33 1820.34ZM2295.89 1820.34C2300.57 1820.34 2305.58 1821.83 2310.9 1824.82L2302.06 1839.11C2298.51 1837.57 2295.52 1836.81 2293.1 1836.81 2287.45 1836.81 2282 1839.13 2276.76 1843.77 2271.51 1848.41 2267.51 1855.62 2264.77 1865.38 2262.67 1872.89 2261.62 1888.07 2261.62 1910.92L2261.62 1955.48 2244.3 1955.48 2244.3 1823.73 2261.62 1823.73 2261.62 1842.98C2266.79 1835.39 2272.23 1829.72 2277.97 1825.97 2283.7 1822.21 2289.67 1820.34 2295.89 1820.34ZM2150.93 1820.34C2173.4 1820.34 2191.33 1828.85 2204.75 1845.89 2214.28 1857.92 2219.13 1872.93 2219.29 1890.94L2100.74 1890.94C2101.06 1906.24 2105.95 1918.78 2115.41 1928.57 2124.87 1938.35 2136.55 1943.25 2150.45 1943.25 2157.16 1943.25 2163.68 1942.08 2170.03 1939.75 2176.37 1937.42 2181.77 1934.32 2186.21 1930.46 2190.66 1926.6 2195.47 1920.37 2200.64 1911.76L2214.93 1919.27C2210.25 1928.47 2204.83 1935.9 2198.69 1941.55 2192.55 1947.2 2185.64 1951.5 2177.96 1954.45 2170.29 1957.4 2161.6 1958.87 2151.9 1958.87 2130.41 1958.87 2113.6 1951.83 2101.48 1937.74 2089.36 1923.65 2083.3 1907.73 2083.3 1889.97 2083.3 1873.26 2088.43 1858.36 2098.69 1845.28 2111.7 1828.65 2129.12 1820.34 2150.93 1820.34ZM1853.08 1820.34C1873.38 1820.34 1890.2 1827.68 1903.55 1842.38 1915.68 1855.78 1921.74 1871.64 1921.74 1889.97 1921.74 1908.37 1915.33 1924.46 1902.52 1938.22 1889.7 1951.99 1873.22 1958.87 1853.08 1958.87 1832.87 1958.87 1816.35 1951.99 1803.53 1938.22 1790.71 1924.46 1784.3 1908.37 1784.3 1889.97 1784.3 1871.72 1790.37 1855.9 1802.5 1842.5 1815.84 1827.72 1832.7 1820.34 1853.08 1820.34ZM1479.29 1820.34C1488.01 1820.34 1496.43 1821.67 1504.54 1824.33 1512.65 1827 1519.53 1830.47 1525.19 1834.75 1530.84 1839.03 1535.64 1844.48 1539.6 1851.1L1526.15 1859.45C1514.54 1844.03 1498.7 1836.32 1478.62 1836.32 1462.57 1836.32 1449.25 1841.48 1438.64 1851.8 1428.04 1862.13 1422.74 1874.66 1422.74 1889.42 1422.74 1899.02 1425.18 1908.05 1430.06 1916.52 1434.94 1924.98 1441.63 1931.55 1450.14 1936.23 1458.64 1940.91 1468.18 1943.25 1478.74 1943.25 1498.09 1943.25 1513.9 1935.54 1526.15 1920.12L1539.6 1928.96C1533.3 1938.44 1524.84 1945.8 1514.23 1951.03 1503.61 1956.25 1491.52 1958.87 1477.96 1958.87 1457.13 1958.87 1439.85 1952.25 1426.13 1939.01 1412.41 1925.77 1405.54 1909.66 1405.54 1890.69 1405.54 1877.94 1408.75 1866.09 1415.17 1855.15 1421.59 1844.21 1430.41 1835.68 1441.63 1829.54 1452.85 1823.41 1465.41 1820.34 1479.29 1820.34ZM1220.84 1820.34C1231.66 1820.34 1241.45 1822.64 1250.21 1827.24 1258.97 1831.84 1266.66 1838.74 1273.28 1847.95L1273.28 1823.73 1289.99 1823.73 1289.99 1955.48 1273.28 1955.48 1273.28 1932.83C1266.17 1941.47 1258.2 1947.97 1249.36 1952.33 1240.52 1956.69 1230.85 1958.87 1220.36 1958.87 1201.71 1958.87 1185.78 1952.11 1172.59 1938.59 1159.39 1925.06 1152.79 1908.61 1152.79 1889.24 1152.79 1870.27 1159.45 1854.04 1172.77 1840.56 1186.09 1827.08 1202.11 1820.34 1220.84 1820.34ZM1066.29 1820.34C1075.01 1820.34 1083.43 1821.67 1091.54 1824.33 1099.65 1827 1106.53 1830.47 1112.19 1834.75 1117.84 1839.03 1122.64 1844.48 1126.6 1851.1L1113.15 1859.45C1101.54 1844.03 1085.7 1836.32 1065.62 1836.32 1049.57 1836.32 1036.25 1841.48 1025.64 1851.8 1015.04 1862.13 1009.74 1874.66 1009.74 1889.42 1009.74 1899.02 1012.18 1908.05 1017.06 1916.52 1021.94 1924.98 1028.63 1931.55 1037.14 1936.23 1045.64 1940.91 1055.18 1943.25 1065.74 1943.25 1085.09 1943.25 1100.9 1935.54 1113.15 1920.12L1126.6 1928.96C1120.3 1938.44 1111.84 1945.8 1101.23 1951.03 1090.61 1956.25 1078.52 1958.87 1064.96 1958.87 1044.13 1958.87 1026.85 1952.25 1013.13 1939.01 999.406 1925.77 992.544 1909.66 992.544 1890.69 992.544 1877.94 995.753 1866.09 1002.17 1855.15 1008.59 1844.21 1017.41 1835.68 1028.63 1829.54 1039.85 1823.41 1052.41 1820.34 1066.29 1820.34ZM1342.49 1774.81 1359.45 1774.81 1359.45 1823.73 1386.33 1823.73 1386.33 1838.38 1359.45 1838.38 1359.45 1955.48 1342.49 1955.48 1342.49 1838.38 1319.36 1838.38 1319.36 1823.73 1342.49 1823.73ZM3016.52 1772.87 3033.23 1772.87 3033.23 1955.48 3016.52 1955.48 3016.52 1932.83C3009.41 1941.47 3001.44 1947.97 2992.6 1952.33 2983.76 1956.69 2974.09 1958.87 2963.6 1958.87 2944.95 1958.87 2929.03 1952.11 2915.83 1938.59 2902.63 1925.06 2896.03 1908.61 2896.03 1889.24 2896.03 1870.27 2902.69 1854.04 2916.01 1840.56 2929.33 1827.08 2945.35 1820.34 2964.08 1820.34 2974.9 1820.34 2984.69 1822.64 2993.45 1827.24 3002.21 1831.84 3009.9 1838.74 3016.52 1847.95ZM1570.72 1772.87 1587.67 1772.87 1587.67 1847.34C1594.54 1838.3 1602.08 1831.54 1610.32 1827.06 1618.55 1822.58 1627.47 1820.34 1637.08 1820.34 1646.93 1820.34 1655.67 1822.84 1663.3 1827.85 1670.93 1832.85 1676.56 1839.57 1680.19 1848.01 1683.82 1856.44 1685.64 1869.66 1685.64 1887.67L1685.64 1955.48 1668.69 1955.48 1668.69 1892.63C1668.69 1877.45 1668.08 1867.32 1666.87 1862.24 1664.77 1853.52 1660.96 1846.96 1655.43 1842.56 1649.9 1838.16 1642.65 1835.96 1633.69 1835.96 1623.44 1835.96 1614.25 1839.35 1606.14 1846.13 1598.03 1852.91 1592.68 1861.31 1590.1 1871.32 1588.48 1877.78 1587.67 1889.72 1587.67 1907.16L1587.67 1955.48 1570.72 1955.48ZM3077.59 1769.48C3081.45 1769.48 3084.75 1770.85 3087.48 1773.6 3090.21 1776.34 3091.58 1779.65 3091.58 1783.53 3091.58 1787.32 3090.21 1790.59 3087.48 1793.33 3084.75 1796.08 3081.45 1797.45 3077.59 1797.45 3073.82 1797.45 3070.56 1796.08 3067.83 1793.33 3065.09 1790.59 3063.73 1787.32 3063.73 1783.53 3063.73 1779.65 3065.09 1776.34 3067.83 1773.6 3070.56 1770.85 3073.82 1769.48 3077.59 1769.48Z" fill="url(#fill1)" fill-rule="evenodd"/><text fill="#000000" fill-opacity="0" font-family="Arial,Arial_MSFontService,sans-serif" font-size="237.586" x="992.544" y="1977.37">catch overspending</text></g></svg>